<svg xmlns="http://www.w3.org/2000/svg" viewBox="0 0 512 512" role="img" aria-labelledby="title desc">
  <title id="title">Roarline app icon</title>
  <desc id="desc">Roarline Signal R on a dark rounded square.</desc>
  <defs>
    <linearGradient id="panel" x1="40" y1="24" x2="472" y2="488" gradientUnits="userSpaceOnUse">
      <stop stop-color="#101D28"/>
      <stop offset="1" stop-color="#07131C"/>
    </linearGradient>
    <linearGradient id="signal" x1="112" y1="92" x2="405" y2="420" gradientUnits="userSpaceOnUse">
      <stop stop-color="#5DA8FF"/>
      <stop offset="1" stop-color="#44D7A8"/>
    </linearGradient>
    <filter id="glow" x="-40%" y="-40%" width="180%" height="180%">
      <feGaussianBlur stdDeviation="10" result="blur"/>
      <feMerge><feMergeNode in="blur"/><feMergeNode in="SourceGraphic"/></feMerge>
    </filter>
  </defs>
  <rect x="20" y="20" width="472" height="472" rx="112" fill="url(#panel)"/>
  <rect x="21.5" y="21.5" width="469" height="469" rx="110.5" fill="none" stroke="#263746" stroke-width="3"/>
  <g transform="translate(53 54) scale(4.22)" fill="url(#signal)">
    <circle cx="26" cy="12" r="4"/>
    <circle cx="39" cy="8" r="5"/>
    <circle cx="52" cy="12" r="4"/>
    <path d="M20 20h29c18 0 29 9 29 24 0 10-5 18-15 22l16 18H58L45 69h-8v15H20V64L9 85l28-15V55h11c8 0 13-4 13-11s-5-11-13-11H37v13H20V20Z"/>
  </g>
  <path d="M82 303h72l21-34 25 76 30-114 29 80 22-29h72" fill="none" stroke="#F05A5A" stroke-width="20" stroke-linecap="round" stroke-linejoin="round" filter="url(#glow)"/>
  <circle cx="382" cy="142" r="22" fill="#F05A5A"/>
</svg>
