<svg xmlns="http://www.w3.org/2000/svg" viewBox="0 0 96 96" role="img" aria-labelledby="title desc">
  <title id="title">Roarline Signal R</title>
  <desc id="desc">A stylised R combining crowd nodes, a conversation tail and a live pulse.</desc>
  <defs>
    <linearGradient id="signal" x1="16" y1="14" x2="78" y2="84" gradientUnits="userSpaceOnUse">
      <stop stop-color="#5DA8FF"/>
      <stop offset="1" stop-color="#44D7A8"/>
    </linearGradient>
  </defs>
  <g fill="url(#signal)">
    <circle cx="26" cy="12" r="4"/>
    <circle cx="39" cy="8" r="5"/>
    <circle cx="52" cy="12" r="4"/>
    <path d="M20 20h29c18 0 29 9 29 24 0 10-5 18-15 22l16 18H58L45 69h-8v15H20V64L9 85l28-15V55h11c8 0 13-4 13-11s-5-11-13-11H37v13H20V20Z"/>
  </g>
  <path d="M7 59h17l5-8 6 18 7-27 7 19 5-7h17" fill="none" stroke="#F05A5A" stroke-width="5" stroke-linecap="round" stroke-linejoin="round"/>
  <circle cx="77" cy="21" r="5" fill="#F05A5A"/>
</svg>
