<svg xmlns="http://www.w3.org/2000/svg" viewBox="0 0 520 104" role="img" aria-labelledby="title desc">
  <title id="title">Roarline</title>
  <desc id="desc">Roarline horizontal logo with the Signal R mark and wordmark.</desc>
  <defs>
    <linearGradient id="signal" x1="14" y1="10" x2="88" y2="92" gradientUnits="userSpaceOnUse">
      <stop stop-color="#5DA8FF"/>
      <stop offset="1" stop-color="#44D7A8"/>
    </linearGradient>
    <linearGradient id="line" x1="340" y1="26" x2="498" y2="78" gradientUnits="userSpaceOnUse">
      <stop stop-color="#5DA8FF"/>
      <stop offset="1" stop-color="#44D7A8"/>
    </linearGradient>
  </defs>
  <g transform="translate(4 4)">
    <g fill="url(#signal)">
      <circle cx="26" cy="12" r="4"/>
      <circle cx="39" cy="8" r="5"/>
      <circle cx="52" cy="12" r="4"/>
      <path d="M20 20h29c18 0 29 9 29 24 0 10-5 18-15 22l16 18H58L45 69h-8v15H20V64L9 85l28-15V55h11c8 0 13-4 13-11s-5-11-13-11H37v13H20V20Z"/>
    </g>
    <path d="M7 59h17l5-8 6 18 7-27 7 19 5-7h17" fill="none" stroke="#F05A5A" stroke-width="5" stroke-linecap="round" stroke-linejoin="round"/>
    <circle cx="77" cy="21" r="5" fill="#F05A5A"/>
  </g>
  <g transform="translate(108 0) skewX(-7)">
    <text x="0" y="68" fill="#F3F7FA" font-family="Inter, Arial, sans-serif" font-size="56" font-weight="900" letter-spacing="1">ROAR</text>
    <text x="174" y="68" fill="url(#line)" font-family="Inter, Arial, sans-serif" font-size="56" font-weight="900" letter-spacing="1">LINE</text>
  </g>
</svg>
