<?xml version='1.0' encoding='utf-8'?>
<svg xmlns="http://www.w3.org/2000/svg" xmlns:xlink="http://www.w3.org/1999/xlink" viewBox="0 0 200 200" fill="none"><path fill-rule="evenodd" clip-rule="evenodd" d="m99.683 174.674 46.475-35.221a18.789 18.789 0 0 0 7.399-14.893V29.348H45.809v95.212a18.789 18.789 0 0 0 7.399 14.893l46.475 35.221Z" fill="#fff"/><path fill-rule="evenodd" clip-rule="evenodd" d="M99.683 175.688 52.72 140.097c-4.834-3.664-7.72-9.472-7.72-15.537V28.54h109.365v96.02c0 6.065-2.885 11.873-7.719 15.537l-46.963 35.591Z" fill="#fff"/><path fill-rule="evenodd" clip-rule="evenodd" d="m99.683 174.674 46.475-35.221a18.789 18.789 0 0 0 7.399-14.893V29.348H45.809v95.212a18.789 18.789 0 0 0 7.399 14.893l46.475 35.221Z" fill="#008AAB"/><path fill-rule="evenodd" clip-rule="evenodd" d="M48.907 32.446v92.114c0 4.849 2.307 9.493 6.172 12.423l44.604 33.803 44.603-33.803a15.673 15.673 0 0 0 6.172-12.423V32.446H48.908Z" fill="#fff"/><path fill-rule="evenodd" clip-rule="evenodd" d="M53.893 124.346h91.581V37.431H53.893v86.915ZM131.255 140.603l-9.288 7.04v-19.121h9.288v12.081ZM117.791 150.807l-9.288 7.04v-29.325h9.288v22.285ZM90.862 157.846l-9.287-7.039v-22.285h9.287v29.324ZM77.398 147.642l-9.287-7.039v-12.081h9.287v19.12ZM54.665 128.522h9.269v8.916l-5.844-4.428a10.604 10.604 0 0 1-3.425-4.488ZM99.683 164.531l-4.644-3.519v-32.49h9.288v32.49l-4.644 3.519ZM141.276 133.01l-5.844 4.428v-8.916h9.269a10.604 10.604 0 0 1-3.425 4.488Z" fill="#000"/><path fill-rule="evenodd" clip-rule="evenodd" d="m97.35 105.546-.616.133c-.063.014-.133-.028-.14-.091l-.042-.343c-.007-.056.007-.098.035-.127l1.009-.847h.49c.07 0 .127.063.127.133v4.498c0 .07-.057.133-.127.133h-.602a.133.133 0 0 1-.133-.133v-3.356ZM101.351 105.518c0-.336-.287-.596-.652-.596-.336 0-.623.26-.623.596 0 .315.196.56.637.666.435-.099.638-.365.638-.666Zm-.638 2.872c.386 0 .729-.259.729-.644 0-.315-.259-.638-.729-.743-.469.105-.728.428-.728.743 0 .385.35.644.728.644Zm-.812-1.8v-.021c-.288-.154-.722-.54-.722-1.086 0-.778.673-1.282 1.52-1.282.876 0 1.549.504 1.549 1.282 0 .532-.435.911-.722 1.079v.028c.315.161.848.567.848 1.17 0 .763-.645 1.345-1.675 1.345-1.001 0-1.646-.582-1.646-1.345 0-.61.651-1.072.848-1.17ZM103.095 108.825l1.822-3.798h-1.85a.138.138 0 0 1-.133-.133v-.49c0-.07.063-.133.133-.133h2.914c.07 0 .134.063.134.133v.049l-2.088 4.393c-.049.112-.119.189-.238.189h-.519c-.084 0-.175-.021-.175-.133v-.077ZM108.847 106.653c0-1.037-.308-1.626-.848-1.626s-.848.589-.848 1.626c0 1.043.308 1.625.848 1.625s.848-.582.848-1.625Zm-2.614 0c0-1.535.645-2.452 1.766-2.452s1.765.917 1.765 2.452c0 1.534-.644 2.452-1.765 2.452s-1.766-.918-1.766-2.452ZM104.079 51.064l-26.89.002v5.794h3.662v33.134H77.19v5.794h7.3l2.155-5.794v-8.219h17.568l-2.155-5.791H86.644V56.86l17.435-.002c5.273 0 9.563 4.29 9.563 9.563a9.507 9.507 0 0 1-1.115 4.47l2.383 6.405a15.311 15.311 0 0 0 4.525-10.876c0-8.467-6.889-15.356-15.356-15.356Z" fill="#fff"/><path fill-rule="evenodd" clip-rule="evenodd" d="m121.663 103.751-15.808-42.48h-5.43l-4.397 11.816h6.181l.931-2.501 7.901 21.23H95.239l2.659-7.142h-6.182l-7.1 19.077h-3.722v5.794h13.654v-5.794h-3.75l2.286-6.141h20.112l2.286 6.141h-3.751v5.794h13.654v-5.794h-3.722Z" fill="#fff"/></svg>